<svg width="50" height="48" viewBox="0 0 50 48" fill="none" xmlns="http://www.w3.org/2000/svg">
<path d="M26.4468 24.04C26.1338 24.04 25.8431 23.9539 25.585 23.8155V23.8191C25.585 24.3116 25.3935 24.7742 25.0462 25.1206C24.6989 25.4679 24.2367 25.6594 23.7448 25.6594C23.4272 25.6594 23.1328 25.5712 22.8719 25.429C22.8455 25.8796 22.6654 26.3007 22.3441 26.6224C21.9968 26.9697 21.5347 27.1611 21.0424 27.1611C20.0644 27.1611 19.2702 26.3923 19.213 25.4287C18.9104 25.5923 18.5683 25.678 18.2154 25.6554C17.2533 25.5923 16.4999 24.761 16.4999 23.7625V15.4854L15.5575 17.1183C15.1985 17.7428 14.5265 18.1305 13.8031 18.1305C13.4505 18.1305 13.1023 18.038 12.7939 17.8613C12.4098 17.6386 12.1351 17.2812 12.0208 16.8536C11.906 16.4257 11.9654 15.9782 12.1874 15.5947C12.1877 15.5947 15.2711 10.2551 15.4592 9.92708C15.4815 9.87776 15.5452 9.73473 15.5995 9.61282C15.6512 9.49643 15.6956 9.37698 15.7382 9.25691C16.668 6.63172 18.9704 5.00101 21.7472 5.00101C25.353 5.00101 28.2866 8.18213 28.2866 12.0923L28.2869 22.1995C28.2869 22.6914 28.0958 23.1536 27.7487 23.5012C27.4014 23.8486 26.9392 24.04 26.4468 24.04L26.4468 24.04ZM21.7472 5.97884C19.3612 5.97884 17.4595 7.32656 16.6598 9.58393C16.6087 9.72727 16.5554 9.87062 16.4932 10.0103C16.3128 10.4149 16.3128 10.4149 16.262 10.4731L16.2552 10.4673C16.0035 10.9423 15.2555 12.2376 13.0341 16.0841C12.9428 16.2418 12.9186 16.425 12.9652 16.6002C13.0123 16.7754 13.1253 16.923 13.2819 17.0134C13.7676 17.2924 14.4329 17.1123 14.7098 16.6299L16.5655 13.4168C16.6764 13.2254 16.9006 13.1314 17.1156 13.1896C17.3294 13.2469 17.4779 13.4407 17.4779 13.6619V23.7628C17.4779 24.2393 17.8375 24.6507 18.2795 24.6798C18.5343 24.6932 18.772 24.6078 18.9506 24.4295C19.1129 24.2672 19.2023 24.0509 19.2023 23.8197V17.2136C19.2023 16.9434 19.4213 16.7244 19.6915 16.7244C19.9616 16.7244 20.1806 16.9431 20.1806 17.2136L20.1803 25.3213C20.1803 25.7966 20.5671 26.1835 21.0425 26.1835C21.2734 26.1835 21.4902 26.094 21.6529 25.9317C21.8152 25.7691 21.9046 25.5522 21.9046 25.3213V17.2136C21.9046 16.9434 22.1233 16.7244 22.3938 16.7244C22.6639 16.7244 22.8829 16.9431 22.8829 17.2136L22.8826 23.7437V23.8197C22.8826 24.2947 23.2694 24.6816 23.7451 24.6816C23.9757 24.6816 24.192 24.5918 24.3555 24.4289C24.5178 24.2668 24.6073 24.0506 24.6073 23.8193V17.2132C24.6073 16.9431 24.826 16.7241 25.0964 16.7241C25.3666 16.7241 25.5855 16.9428 25.5855 17.2132L25.5849 22.1997C25.5849 22.6754 25.9718 23.0622 26.4468 23.0622C26.678 23.0622 26.8943 22.9725 27.0566 22.8104C27.2195 22.6475 27.3087 22.4306 27.3087 22.1997L27.309 12.0926C27.309 8.72183 24.814 5.97894 21.7472 5.97894L21.7472 5.97884Z" fill="#004630"/>
<path d="M7.22936 31.0637L14.3271 26.8056C15.1829 26.2917 16.2839 26.5101 16.8328 27.3031C17.0331 27.5919 17.1354 27.9285 17.1513 28.2713C17.416 28.1332 17.7039 28.0581 17.997 28.0581C18.147 28.0581 18.2977 28.0768 18.4466 28.1138C18.9235 28.233 19.3253 28.531 19.578 28.9525C19.831 29.3745 19.9048 29.8692 19.7857 30.3455C19.6757 30.7863 19.4077 31.1572 19.035 31.4117C19.2956 31.5655 19.5204 31.7753 19.6803 32.0424C19.9333 32.4645 20.0071 32.9588 19.8883 33.4357C19.7691 33.912 19.4711 34.3139 19.0491 34.5672L19.0466 34.5687C19.3027 34.7222 19.5235 34.9299 19.6816 35.193C19.9348 35.615 20.0087 36.1097 19.8895 36.5866C19.7701 37.0631 19.4721 37.465 19.0506 37.718L10.3842 42.9174C8.76668 43.8874 6.89681 44.2222 5.11976 43.8592C3.3268 43.4929 1.84191 42.4623 0.939036 40.9571C-0.489796 38.5757 -0.275664 35.7621 1.49678 33.6146C1.57795 33.5166 1.65788 33.4168 1.73047 33.3132C1.80735 33.2039 1.89709 33.0752 1.92772 33.0311C2.11118 32.7034 5.10482 27.3096 5.1045 27.3102C5.40681 26.7647 5.97342 26.4559 6.5578 26.4562C6.83039 26.4562 7.10696 26.5233 7.36211 26.6648C7.67023 26.837 7.92904 27.0878 8.11005 27.3901C8.48219 28.0104 8.49536 28.7865 8.14497 29.4147L7.22936 31.0637ZM7.27193 27.893C7.17699 27.7346 7.04651 27.6084 6.88693 27.519C6.55707 27.3364 6.14175 27.4553 5.96015 27.7839C3.81804 31.6432 3.08782 32.9584 2.80602 33.4264L2.81246 33.428C2.78887 33.5064 2.78887 33.5064 2.53099 33.8749C2.44339 33.9995 2.34814 34.1193 2.25104 34.2372C0.726946 36.0839 0.549979 38.4077 1.77722 40.454C2.53741 41.7214 3.7938 42.5904 5.31508 42.901C6.8529 43.2137 8.47375 42.9227 9.88055 42.0786L18.5478 36.879C18.7457 36.7605 18.8853 36.5721 18.9411 36.3488C18.9968 36.1258 18.9622 35.894 18.8434 35.6961C18.5989 35.2888 18.0682 35.1549 17.6608 35.4002L13.3851 37.9655C13.1536 38.1045 12.8528 38.0298 12.7141 37.7979C12.575 37.5664 12.65 37.2659 12.8816 37.1268L17.1576 34.5616L18.5463 33.7285C18.7441 33.6097 18.8841 33.4213 18.9398 33.1986C18.9956 32.9753 18.961 32.7432 18.8421 32.5456C18.5974 32.1379 18.0666 32.0053 17.6596 32.2497L11.9949 35.6481C11.7628 35.7874 11.4629 35.7121 11.3238 35.4805C11.1848 35.249 11.2601 34.9485 11.4914 34.8094L18.4437 30.6387C18.6415 30.5198 18.7812 30.3318 18.8369 30.1085C18.8927 29.8855 18.8581 29.6536 18.7395 29.4558C18.621 29.2582 18.4326 29.1186 18.2094 29.0628C17.9849 29.0071 17.7539 29.0417 17.5567 29.1599L16.2697 29.9321C16.2694 29.9321 16.2694 29.9324 16.2691 29.9324H16.2688L10.6044 33.3307C10.3723 33.4704 10.0721 33.395 9.93334 33.1632C9.7943 32.9316 9.86964 32.6311 10.1009 32.4921L15.7656 29.0938C15.9634 28.9749 16.1034 28.7865 16.1591 28.5639C16.2204 28.3194 16.1738 28.0695 16.0286 27.86C15.7769 27.4958 15.2385 27.399 14.8302 27.6444L6.16921 32.8403C5.97962 32.9537 5.73674 32.9261 5.57778 32.7727C5.41852 32.6189 5.38268 32.3772 5.48987 32.184L7.29083 28.9391C7.47154 28.6147 7.46449 28.2141 7.27184 27.8931L7.27193 27.893Z" fill="#004630"/>
<path d="M41.1458 40.9574C40.2432 42.4628 38.7587 43.4932 36.9654 43.8595C35.1881 44.2218 33.3188 43.8877 31.701 42.9176L23.0338 37.718C22.612 37.465 22.3137 37.0632 22.1943 36.586C22.0757 36.1097 22.1499 35.615 22.4025 35.1935C22.5603 34.9301 22.7814 34.7225 23.0378 34.569L23.0353 34.5675C22.6136 34.3145 22.3153 33.9126 22.1964 33.436C22.077 32.9594 22.1511 32.4644 22.4041 32.0424C22.567 31.7713 22.7903 31.5594 23.0451 31.409C22.6751 31.1545 22.4087 30.7848 22.299 30.3461C22.1796 29.8693 22.2537 29.3746 22.5067 28.9531C22.7594 28.5313 23.1615 28.2333 23.6381 28.1142C23.787 28.0768 23.938 28.0584 24.0874 28.0584C24.3809 28.0587 24.6688 28.1332 24.9334 28.2716C24.9496 27.9289 25.0516 27.5923 25.2519 27.3034C25.8011 26.5111 26.9012 26.2918 27.7582 26.806L34.8557 31.0635L33.9409 29.4156C33.5899 28.7865 33.6027 28.0103 33.9749 27.3898C34.1562 27.0877 34.4153 26.8369 34.725 26.6632C34.9795 26.5223 35.2551 26.4556 35.5271 26.4556C36.1112 26.4559 36.6784 26.764 36.9804 27.3095C38.0328 29.2058 40.0187 32.7821 40.1583 33.0317C40.188 33.0749 40.2778 33.2036 40.3547 33.3129C40.4279 33.4167 40.5069 33.516 40.5887 33.6146C42.3608 35.7629 42.5746 38.5762 41.1458 40.9574L41.1458 40.9574ZM39.8341 34.2379C39.7367 34.12 39.6411 33.9996 39.5541 33.8756C39.2895 33.5001 39.2828 33.4903 39.2629 33.392C38.9535 32.8802 38.1989 31.5215 36.1244 27.784C35.9425 27.456 35.529 27.3362 35.1998 27.5182C35.0377 27.6088 34.9076 27.7353 34.8126 27.8937C34.6203 28.2144 34.6129 28.615 34.7945 28.9403L36.5949 32.1842C36.7024 32.3778 36.6665 32.6192 36.5076 32.7729C36.3489 32.927 36.1064 32.954 35.9158 32.8406L27.2549 27.6447C26.8466 27.3999 26.3085 27.4958 26.0561 27.8603C25.9109 28.0698 25.8647 28.3197 25.9253 28.5638C25.981 28.7868 26.121 28.9749 26.3192 29.0937C26.3198 29.094 26.3201 29.0946 26.3207 29.0949L31.9836 32.4923C32.2151 32.6314 32.2902 32.9316 32.1511 33.1634C32.0121 33.3947 31.7122 33.4703 31.4801 33.331L24.5278 29.1602C24.3305 29.042 24.0984 29.0071 23.8754 29.0631C23.6518 29.1189 23.4637 29.2585 23.3452 29.4567C23.2264 29.6543 23.1921 29.8861 23.2472 30.1091C23.3029 30.3321 23.4429 30.5205 23.6408 30.6393L24.9936 31.4507L30.5928 34.8101C30.8243 34.9492 30.8993 35.2493 30.7603 35.4812C30.6212 35.7124 30.3214 35.7878 30.0892 35.6487L24.4252 32.2504C24.0178 32.0054 23.4873 32.1383 23.2423 32.5463C23.1235 32.7442 23.0892 32.976 23.1443 33.199C23.2 33.422 23.34 33.61 23.5382 33.7292L24.9269 34.5623L29.2022 37.1275C29.4338 37.2666 29.5088 37.5667 29.3698 37.7986C29.2307 38.0298 28.9309 38.1058 28.6987 37.9661L24.4233 35.4009C24.2261 35.2827 23.9948 35.2478 23.7706 35.3038C23.5477 35.3596 23.359 35.4993 23.2405 35.6968C23.1219 35.8947 23.0873 36.1268 23.1425 36.3495C23.1982 36.5725 23.3382 36.7606 23.5363 36.8797L32.2036 42.0793C33.6101 42.9231 35.2321 43.2153 36.769 42.9016C38.29 42.5911 39.5464 41.7221 40.3066 40.4547C41.5351 38.408 41.3584 36.0839 39.8346 34.2379L39.8341 34.2379Z" fill="#004630"/>
</svg>
